<?xml version="1.0" encoding="utf-8"?>
<!-- Generator: Adobe Illustrator 21.1.0, SVG Export Plug-In . SVG Version: 6.00 Build 0)  -->
<svg version="1.1" id="Capa_1" xmlns="http://www.w3.org/2000/svg" xmlns:xlink="http://www.w3.org/1999/xlink" x="0px" y="0px"
	 viewBox="0 0 512 512" style="enable-background:new 0 0 512 512;" xml:space="preserve">
<style type="text/css">
	.st0{fill:#2D001D;}
	.st1{fill:#B9783D;}
	.st2{fill:#852E2E;}
	.st3{fill:#F8A3A3;}
	.st4{fill:#115799;}
	.st5{fill:#E0FF2A;}
	.st6{fill:#003B55;}
	.st7{fill:#FFFFFF;}
	.st8{fill:#FFF17F;}
</style>
<path class="st0" d="M512,256c0,141.4-114.6,256-256,256S0,397.4,0,256S114.6,0,256,0S512,114.6,512,256z"/>
<path class="st1" d="M389.7,205.6l-36.4,100l-27,74.1l-30.1,82.7c-5.5,15.1-22.2,22.9-37.3,17.4c-1.4-0.5-2.8-1.1-4-1.8
	c-1.2,0.7-2.5,1.2-3.9,1.7l0,0c-15.1,5.5-31.8-2.3-37.3-17.4l-93.5-256.8c-5.1-14.1,2.1-29.7,16.3-34.9l3.5-1.3
	c14.1-5.1,29.7,2.1,34.9,16.3l36.4,100l15.5,42.7V172.9c0-15,12.2-27.2,27.2-27.2h3.7c15,0,27.2,12.2,27.2,27.2v106.4v43.9l50-137.4
	c5.1-14.1,20.8-21.4,34.9-16.3l3.5,1.3C387.6,175.8,394.9,191.5,389.7,205.6z"/>
<path class="st2" d="M382.4,176.9c-10.9,1-20.7,8.1-24.7,19l-92.8,255c-2.4,6.5-2.2,13.4-0.1,19.4c1.2,0.8,2.4,1.5,3.6,2
	c-0.8,0.4-1.6,0.7-2.4,1c1.4,2.9,3.3,5.6,5.6,8c-4.1,0.4-8.4-0.1-12.5-1.6l0,0c-1.4-0.5-2.8-1.1-4-1.8c-1.2,0.7-2.5,1.3-3.9,1.7l0,0
	c-15.1,5.5-31.8-2.3-37.3-17.4l-92.8-255c-5.5-15.1,2.3-31.8,17.4-37.3l0,0c4.2-1.5,8.4-2,12.6-1.6c-7.7,7.7-10.7,19.5-6.7,30.4
	L226.9,426V174.7c0-16.1,13-29.1,29.1-29.1l0,0c4.4,0,8.6,1,12.4,2.8c-9.9,4.6-16.7,14.7-16.7,26.3V415l82.8-227.6
	c5.5-15.1,22.2-22.9,37.3-17.4l0,0C375.9,171.6,379.5,173.9,382.4,176.9z"/>
<path class="st1" d="M312.3,34.3l-10,35.6l-15,45.2c-8-2-19-3.2-31.2-3.2s-23.2,1.2-31.2,3.2L210,70.4l-8.6-36.1
	c-2.3-6.8,0.2-14.4,6.1-18.4c14.8-10,29.3-13.4,48.5-13.4s35.3,3.4,50.1,13.4C312.1,19.9,314.5,27.5,312.3,34.3z M419.3,47.8
	c0.2-0.6,0.1-1.2,0-1.7c-0.7-2.7,1-4.9-1.2-3.3L359.3,87c-6.3,4.5-13.5,7.3-17.2,13.6c-8.5,14.6-9.8,32.9-2.3,49l0,0
	c6.6,14.2,18.7,24,32.5,28.2c12,3.7,25.4,3.1,37.7-2.7l0,0c8.7-4.1,16.4-10,21.1-17.8c5.7-9.5,7.9-18.8,8-28
	C439.5,97.9,410.7,72.1,419.3,47.8z M91,40c-6.5,23.8-10.3,57.2-3.1,86.8c1.4,5.7,3,11.1,4.8,16c10.8,29.8,25.9,33.4,52.5,45.7
	c12.5-26.6,21.7-39,10.8-68.8c-1.8-4.9-3.9-10.3-6.8-15.6C134.3,76.8,113.8,56.5,91,40z"/>
<path class="st3" d="M314,34.3l-12.7,38.2c-4.8-0.7-8.6-4.3-9.6-9V39.4c0-6.4-5.2-11.6-11.6-11.6h-0.9c-6.4,0-11.6,5.2-11.6,11.6
	v2.1c-1.2,5.2-5.8,9-11.3,9h-0.9c-5.5,0-10.1-3.9-11.3-9v-2.1c0-6.4-5.2-11.6-11.6-11.6h-0.9c-6.4,0-11.6,5.2-11.6,11.6v24.2
	c-1,4.7-4.8,8.3-9.6,9L198,34.3c-2.3-6.8,0.2-14.4,6.1-18.4C218.9,5.9,236.8,0,256,0s37.1,5.9,51.9,15.9
	C313.8,19.9,316.3,27.5,314,34.3z"/>
<path class="st4" d="M439,132.5c-2.7,1.8-6.3,2.4-9.6,1.2l0,0c-4.8-1.7-7.5-6.5-6.9-11.3l0.8-2.2c2-5.5-0.8-11.6-6.3-13.6l0,0
	c-5.5-2-11.6,0.8-13.6,6.3L393,141.7c-2.6,4.1-7.8,6-12.6,4.3c-4.8-1.7-7.5-6.5-6.9-11.3l10.5-28.8c2-5.5-0.8-11.6-6.3-13.6
	s-11.6,0.8-13.6,6.3l-3.2,8.8c-2.6,4.1-7.8,6-12.6,4.3c-4.2-1.5-6.8-5.4-7-9.7c3.7-6.9,9-13,15.8-17.8L417,40.6
	c2.2-1.6,5.4-0.5,6.1,2.2c0.1,0.6,0.2,1.2,0,1.7C414.2,69.7,441.1,99.8,439,132.5z"/>
<path class="st5" d="M129.8,114l-7.3-20.2c-2.1-5.7-8.4-8.7-14.2-6.6s-8.7,8.4-6.6,14.2l7.3,20.2c0.7,5-2.2,10.1-7.1,11.9
	c-5.4,2-11.3-0.5-13.7-5.6c-7.4-29.7-9.1-69.3,1.5-91.9l0,0c22.6,10.5,46.7,41.9,60.2,69.4c1.4,5.4-1.6,11.1-6.9,13.1
	C137.9,120.3,132.5,118.3,129.8,114z"/>
<path class="st6" d="M376.2,302.7l-17.1,187.6c-31.5,14-66.4,21.7-103.1,21.7s-71.6-7.7-103.1-21.6l-17.1-187.6
	c-0.5-5.5,3.8-10.2,9.3-10.2h221.8C372.4,292.6,376.7,297.3,376.2,302.7z"/>
<path class="st7" d="M360.4,476.7l-1.2,13.7C327.6,504.3,292.7,512,256,512s-71.6-7.7-103.1-21.6l-17.1-187.6
	c-0.5-5.5,3.8-10.2,9.3-10.2H170c0,0.8,0,1.6,0,2.4c0,102.2,71.6,185,160,185C340.4,480,350.5,478.8,360.4,476.7z"/>
<path class="st7" d="M400,177.3L400,177.3c-0.2,0.7-0.5,1.4-0.8,2l0,0l-19.9,54.6l0,0l-0.3,0.8l-54.6-19.9l6.7-18.5l13.4-36.9l0,0
	c0.2-0.7,0.5-1.4,0.7-2.1l0,0c1.4-3.8,14.7-2.4,29.8,3.1C390.3,166,401.4,173.5,400,177.3z M183.8,209.6L163.9,155l0,0
	c-0.2-0.7-0.5-1.4-0.7-2.1l0,0c-1.4-3.8-14.7-2.4-29.8,3.1s-26.2,13-24.8,16.8l0,0c0.2,0.7,0.5,1.4,0.8,2l0,0l13.4,36.9l6.7,18.5
	l54.6-19.9L183.8,209.6L183.8,209.6z M288.6,107.1c-8.1-2.2-19.7-3.6-32.6-3.6s-24.5,1.4-32.6,3.6c-1.8,0.5-3,2.4-2.6,4.2l5.8,30.5
	l0.4,37.6v19.7h58.1v-0.8l0.4-56.5l5.8-30.5C291.6,109.5,290.4,107.6,288.6,107.1z"/>
<path class="st8" d="M382.9,190.3l-0.1,0.2c-1.3,3.6-5.1,5.5-8.8,4.4c-0.6-0.2-1.2-0.4-1.9-0.6l-12.1-4.4l-2.8,7.8l12.1,4.4
	c0.4,0.1,0.7,0.3,1.1,0.4c3.9,1.3,6.1,5.4,4.7,9.3L375,212c-1.3,3.6-5.1,5.5-8.8,4.4c-0.6-0.2-1.2-0.4-1.9-0.6l-12.1-4.4l-4.4,12
	l-23.5-8.5l6.7-18.5l0.5-1.3l5-13.7l8-21.9l0,0c0.2-0.7,0.5-1.4,0.7-2.1l0,0c1.4-3.8,14.7-2.4,29.8,3.1c4.2,1.5,8.1,3.2,11.5,4.9
	c-9.6-2.3-16.8-2.2-17.8,0.5l0,0c-0.2,0.7-0.5,1.4-0.7,2.1l0,0l-3,8.2l12.1,4.4c0.4,0.1,0.7,0.3,1.1,0.4
	C382.2,182.2,384.3,186.4,382.9,190.3z M166.2,195.4c-1.4-3.9-5.8-5.7-9.6-4.1c-0.3,0.1-0.7,0.3-1.1,0.4l-12.1,4.4l-2.8-7.8
	l12.1-4.4c0.6-0.2,1.2-0.5,1.8-0.7c3.5-1.5,5.2-5.5,3.9-9l-0.1-0.2c-1.4-3.9-5.8-5.7-9.6-4.1c-0.3,0.1-0.7,0.3-1.1,0.4l-12.1,4.4
	l-3-8.2l0,0c-0.3-0.7-0.5-1.4-0.8-2l0,0c-1-2.7,4.5-7.4,13.3-11.8c-3.7,0.9-7.8,2.1-12,3.6c-15.1,5.5-26.2,13-24.8,16.8
	c0.2,0.7,0.5,1.4,0.8,2l0,0l8,21.9l2.5,7l2.9,8l6.7,18.5l23.5-8.5l-4.4-12l12.1-4.4c0.6-0.2,1.2-0.5,1.8-0.7c3.5-1.5,5.2-5.5,3.9-9
	L166.2,195.4z M265.9,149c-0.4,0-0.8,0-1.1,0H252v-18.1c-0.1,0-5.3-27.1-5.3-27.1c-9.1,0.5-17.1,1.7-23.2,3.3
	c-1.8,0.5-3,2.4-2.6,4.2l5.8,30.5l0.4,21.7V178v1.4v19.7h25v-6.6v-6.2h12.8c0.7,0,1.3,0,2-0.1c3.8-0.3,6.8-3.4,6.8-7.2v0
	c0-4.1-3.5-7.3-7.6-7.2c-0.4,0-0.8,0-1.1,0h-12.8v-8.3H265c0.7,0,1.3,0,2-0.1c3.8-0.3,6.8-3.4,6.8-7.2V156
	C273.4,152.1,270,148.9,265.9,149z"/>
</svg>
